<svg version="1.1" xmlns="http://www.w3.org/2000/svg" width="1360" height="1360" viewBox="0 0 1360 1360" preserveAspectRatio="xMidYMid meet">
  <style>
    path { fill: #1f78b4; stroke=width:0.2; }
    @media (prefers-color-scheme: dark) {
      path { filter: contrast(0.83) brightness(1.7); }
    }
  </style>
  <path d="m 674.3,108.1 c -21.6,2 -42,14.7 -58.2,36.3 C 581.2,190.9 555.6,271.9 501.5,507 445.9,748.8 423.9,832.5 395,912.5 c -25.9,71.7 -49.8,116 -78,144.6 -26.9,27.3 -54.6,37.6 -112.5,41.9 -12.8,0.9 -98.6,2.8 -134.2,3 H 59 v 49.5 49.5 h 50.3 c 73.1,0 114.2,-2.1 146.7,-7.6 135.1,-22.7 202.5,-116.5 275,-382.9 16.1,-59.1 29.3,-113.7 62,-255.5 31,-134.4 42.1,-179.5 56.9,-231.5 9.8,-34.6 20.4,-66.4 28.1,-84.9 l 3.3,-7.9 1.7,3.4 c 3.4,6.6 14.9,38.6 21.4,59.6 17.2,55.4 31.2,111.4 68.2,272.2 44.3,192.6 64.9,271.6 91.4,351.1 28.7,86.2 54.7,140.5 88.9,185.5 10,13.3 35.1,38.3 47.8,47.8 37.7,28.1 80.3,42.3 142.8,47.7 23.3,2 60.5,3 110.3,3 h 50.2 v -49.5 -49.5 h -11.2 c -34.6,-0.2 -121.3,-2.1 -133.3,-3 -45.5,-3.4 -71,-10.2 -93.4,-24.6 -10.2,-6.7 -28.8,-25.1 -37.3,-36.9 -25.2,-35.6 -46.2,-80.9 -69.3,-150 C 934.5,812.9 914,734.9 876.9,574 843.2,427.8 832.7,383.5 820.1,336 786.7,209.2 760.5,149.5 727.5,124.3 c -17.1,-13 -33.5,-18 -53.2,-16.2 z">
  </path>
</svg>
